<mxfile host="app.diagrams.net" modified="2023-07-23T18:28:36.733Z" agent="Mozilla/5.0 (Windows NT 10.0; Win64; x64; rv:109.0) Gecko/20100101 Firefox/115.0" etag="m1N4KV_apv77v142HqDw" version="21.6.5" type="device">
  <diagram name="PÃ¡gina-1" id="zM4AHsppUV11jvB73Zen">
    <mxGraphModel dx="1434" dy="1915" grid="1" gridSize="10" guides="1" tooltips="1" connect="1" arrows="1" fold="1" page="1" pageScale="1" pageWidth="827" pageHeight="1169" math="0" shadow="0">
      <root>
        <mxCell id="0" />
        <mxCell id="1" parent="0" />
        <mxCell id="gv2Mm_Y-joqYlYkA0Ygy-3" style="rounded=0;orthogonalLoop=1;jettySize=auto;html=1;entryX=1;entryY=0.5;entryDx=0;entryDy=0;" parent="1" source="gv2Mm_Y-joqYlYkA0Ygy-1" target="gv2Mm_Y-joqYlYkA0Ygy-2" edge="1">
          <mxGeometry relative="1" as="geometry" />
        </mxCell>
        <mxCell id="gv2Mm_Y-joqYlYkA0Ygy-4" value="&amp;nbsp;haTrabajado&amp;nbsp; " style="edgeLabel;html=1;align=center;verticalAlign=middle;resizable=0;points=[];labelBackgroundColor=#FFFFFF;fontColor=#000000;" parent="gv2Mm_Y-joqYlYkA0Ygy-3" vertex="1" connectable="0">
          <mxGeometry x="-0.0366" relative="1" as="geometry">
            <mxPoint x="-1" as="offset" />
          </mxGeometry>
        </mxCell>
        <mxCell id="gv2Mm_Y-joqYlYkA0Ygy-13" style="edgeStyle=orthogonalEdgeStyle;rounded=0;orthogonalLoop=1;jettySize=auto;html=1;entryX=0.5;entryY=1;entryDx=0;entryDy=0;" parent="1" source="gv2Mm_Y-joqYlYkA0Ygy-1" target="gv2Mm_Y-joqYlYkA0Ygy-11" edge="1">
          <mxGeometry relative="1" as="geometry" />
        </mxCell>
        <mxCell id="gv2Mm_Y-joqYlYkA0Ygy-14" value="&lt;div&gt;&amp;nbsp;tieneRedSocial&amp;nbsp; &lt;br&gt;&lt;/div&gt;" style="edgeLabel;html=1;align=center;verticalAlign=middle;resizable=0;points=[];labelBackgroundColor=#FFFFFF;fontColor=#000000;" parent="gv2Mm_Y-joqYlYkA0Ygy-13" vertex="1" connectable="0">
          <mxGeometry y="-3" relative="1" as="geometry">
            <mxPoint as="offset" />
          </mxGeometry>
        </mxCell>
        <mxCell id="gv2Mm_Y-joqYlYkA0Ygy-30" style="rounded=0;orthogonalLoop=1;jettySize=auto;html=1;exitX=1;exitY=0;exitDx=0;exitDy=0;entryX=0;entryY=1;entryDx=0;entryDy=0;" parent="1" source="gv2Mm_Y-joqYlYkA0Ygy-1" target="gv2Mm_Y-joqYlYkA0Ygy-10" edge="1">
          <mxGeometry relative="1" as="geometry" />
        </mxCell>
        <mxCell id="gv2Mm_Y-joqYlYkA0Ygy-37" value="perteneceAPartidoPolitico" style="edgeLabel;html=1;align=center;verticalAlign=middle;resizable=0;points=[];" parent="gv2Mm_Y-joqYlYkA0Ygy-30" vertex="1" connectable="0">
          <mxGeometry x="-0.2049" y="2" relative="1" as="geometry">
            <mxPoint x="8" y="-5" as="offset" />
          </mxGeometry>
        </mxCell>
        <mxCell id="gv2Mm_Y-joqYlYkA0Ygy-38" style="rounded=0;orthogonalLoop=1;jettySize=auto;html=1;entryX=0;entryY=0;entryDx=0;entryDy=0;" parent="1" source="gv2Mm_Y-joqYlYkA0Ygy-1" target="gv2Mm_Y-joqYlYkA0Ygy-8" edge="1">
          <mxGeometry relative="1" as="geometry" />
        </mxCell>
        <mxCell id="gv2Mm_Y-joqYlYkA0Ygy-48" value="haFinalizado" style="edgeLabel;html=1;align=center;verticalAlign=middle;resizable=0;points=[];" parent="gv2Mm_Y-joqYlYkA0Ygy-38" vertex="1" connectable="0">
          <mxGeometry x="-0.015" y="-2" relative="1" as="geometry">
            <mxPoint x="-1" as="offset" />
          </mxGeometry>
        </mxCell>
        <mxCell id="gv2Mm_Y-joqYlYkA0Ygy-39" style="edgeStyle=orthogonalEdgeStyle;rounded=0;orthogonalLoop=1;jettySize=auto;html=1;entryX=0;entryY=0.5;entryDx=0;entryDy=0;" parent="1" source="gv2Mm_Y-joqYlYkA0Ygy-1" target="gv2Mm_Y-joqYlYkA0Ygy-9" edge="1">
          <mxGeometry relative="1" as="geometry" />
        </mxCell>
        <mxCell id="gv2Mm_Y-joqYlYkA0Ygy-40" value="&lt;div&gt;&amp;nbsp;postuloPorDistrito&amp;nbsp; &lt;br&gt;&lt;/div&gt;" style="edgeLabel;html=1;align=center;verticalAlign=middle;resizable=0;points=[];" parent="gv2Mm_Y-joqYlYkA0Ygy-39" vertex="1" connectable="0">
          <mxGeometry x="-0.1857" y="-1" relative="1" as="geometry">
            <mxPoint x="13" y="-1" as="offset" />
          </mxGeometry>
        </mxCell>
        <mxCell id="gv2Mm_Y-joqYlYkA0Ygy-52" style="rounded=0;orthogonalLoop=1;jettySize=auto;html=1;exitX=0;exitY=0.5;exitDx=0;exitDy=0;entryX=1;entryY=0.5;entryDx=0;entryDy=0;" parent="1" source="gv2Mm_Y-joqYlYkA0Ygy-1" target="gv2Mm_Y-joqYlYkA0Ygy-49" edge="1">
          <mxGeometry relative="1" as="geometry" />
        </mxCell>
        <mxCell id="gv2Mm_Y-joqYlYkA0Ygy-55" value="nombre" style="edgeLabel;html=1;align=center;verticalAlign=middle;resizable=0;points=[];" parent="gv2Mm_Y-joqYlYkA0Ygy-52" vertex="1" connectable="0">
          <mxGeometry x="-0.0274" y="2" relative="1" as="geometry">
            <mxPoint as="offset" />
          </mxGeometry>
        </mxCell>
        <mxCell id="gv2Mm_Y-joqYlYkA0Ygy-53" style="rounded=0;orthogonalLoop=1;jettySize=auto;html=1;entryX=1;entryY=0.5;entryDx=0;entryDy=0;" parent="1" source="gv2Mm_Y-joqYlYkA0Ygy-1" target="gv2Mm_Y-joqYlYkA0Ygy-50" edge="1">
          <mxGeometry relative="1" as="geometry" />
        </mxCell>
        <mxCell id="gv2Mm_Y-joqYlYkA0Ygy-56" value="edad" style="edgeLabel;html=1;align=center;verticalAlign=middle;resizable=0;points=[];" parent="gv2Mm_Y-joqYlYkA0Ygy-53" vertex="1" connectable="0">
          <mxGeometry x="-0.1758" y="-1" relative="1" as="geometry">
            <mxPoint as="offset" />
          </mxGeometry>
        </mxCell>
        <mxCell id="gv2Mm_Y-joqYlYkA0Ygy-54" style="rounded=0;orthogonalLoop=1;jettySize=auto;html=1;" parent="1" source="gv2Mm_Y-joqYlYkA0Ygy-1" target="gv2Mm_Y-joqYlYkA0Ygy-51" edge="1">
          <mxGeometry relative="1" as="geometry" />
        </mxCell>
        <mxCell id="gv2Mm_Y-joqYlYkA0Ygy-57" value="genero" style="edgeLabel;html=1;align=center;verticalAlign=middle;resizable=0;points=[];" parent="gv2Mm_Y-joqYlYkA0Ygy-54" vertex="1" connectable="0">
          <mxGeometry x="-0.0423" y="1" relative="1" as="geometry">
            <mxPoint as="offset" />
          </mxGeometry>
        </mxCell>
        <mxCell id="gv2Mm_Y-joqYlYkA0Ygy-1" value="&lt;font face=&quot;Verdana&quot;&gt;Person&lt;/font&gt;" style="ellipse;whiteSpace=wrap;html=1;aspect=fixed;fillColor=#0050ef;strokeColor=#000000;fontColor=#ffffff;" parent="1" vertex="1">
          <mxGeometry x="320" y="200" width="80" height="80" as="geometry" />
        </mxCell>
        <mxCell id="gv2Mm_Y-joqYlYkA0Ygy-2" value="&lt;font face=&quot;Verdana&quot;&gt;Cargo&lt;/font&gt;" style="ellipse;whiteSpace=wrap;html=1;aspect=fixed;fillColor=#0050ef;strokeColor=#000000;fontColor=#ffffff;" parent="1" vertex="1">
          <mxGeometry x="155" y="150" width="80" height="80" as="geometry" />
        </mxCell>
        <mxCell id="gv2Mm_Y-joqYlYkA0Ygy-6" style="rounded=0;orthogonalLoop=1;jettySize=auto;html=1;entryX=0;entryY=0;entryDx=0;entryDy=0;" parent="1" source="gv2Mm_Y-joqYlYkA0Ygy-5" target="gv2Mm_Y-joqYlYkA0Ygy-1" edge="1">
          <mxGeometry relative="1" as="geometry" />
        </mxCell>
        <mxCell id="gv2Mm_Y-joqYlYkA0Ygy-7" value="&amp;nbsp;subClassOf&amp;nbsp; " style="edgeLabel;html=1;align=center;verticalAlign=middle;resizable=0;points=[];fontColor=#000000;labelBackgroundColor=#FFFFFF;" parent="gv2Mm_Y-joqYlYkA0Ygy-6" vertex="1" connectable="0">
          <mxGeometry x="-0.1319" y="3" relative="1" as="geometry">
            <mxPoint as="offset" />
          </mxGeometry>
        </mxCell>
        <mxCell id="gv2Mm_Y-joqYlYkA0Ygy-5" value="&lt;font face=&quot;Verdana&quot;&gt;Candidato&lt;/font&gt;" style="ellipse;whiteSpace=wrap;html=1;aspect=fixed;fillColor=#0050ef;strokeColor=#000000;fontColor=#ffffff;" parent="1" vertex="1">
          <mxGeometry x="210" y="50" width="80" height="80" as="geometry" />
        </mxCell>
        <mxCell id="gv2Mm_Y-joqYlYkA0Ygy-8" value="&lt;font face=&quot;Verdana&quot;&gt;Profesion&lt;/font&gt;" style="ellipse;whiteSpace=wrap;html=1;aspect=fixed;fillColor=#0050ef;strokeColor=#000000;fontColor=#ffffff;" parent="1" vertex="1">
          <mxGeometry x="460" y="300" width="80" height="80" as="geometry" />
        </mxCell>
        <mxCell id="gv2Mm_Y-joqYlYkA0Ygy-9" value="&lt;font style=&quot;font-size: 12px;&quot; face=&quot;Verdana&quot;&gt;Distrito&lt;/font&gt;" style="ellipse;whiteSpace=wrap;html=1;aspect=fixed;fillColor=#0050ef;strokeColor=#000000;fontColor=#ffffff;" parent="1" vertex="1">
          <mxGeometry x="540" y="200" width="80" height="80" as="geometry" />
        </mxCell>
        <mxCell id="gv2Mm_Y-joqYlYkA0Ygy-10" value="&lt;font style=&quot;font-size: 10px;&quot; face=&quot;Verdana&quot;&gt;PartidoPolitico&lt;/font&gt;" style="ellipse;whiteSpace=wrap;html=1;aspect=fixed;fillColor=#0050ef;strokeColor=#000000;fontColor=#ffffff;" parent="1" vertex="1">
          <mxGeometry x="460" y="60" width="80" height="80" as="geometry" />
        </mxCell>
        <mxCell id="gv2Mm_Y-joqYlYkA0Ygy-22" style="rounded=0;orthogonalLoop=1;jettySize=auto;html=1;exitX=1;exitY=0;exitDx=0;exitDy=0;entryX=0.25;entryY=1;entryDx=0;entryDy=0;" parent="1" source="gv2Mm_Y-joqYlYkA0Ygy-11" target="gv2Mm_Y-joqYlYkA0Ygy-19" edge="1">
          <mxGeometry relative="1" as="geometry" />
        </mxCell>
        <mxCell id="gv2Mm_Y-joqYlYkA0Ygy-29" value="twitter" style="edgeLabel;html=1;align=center;verticalAlign=middle;resizable=0;points=[];" parent="gv2Mm_Y-joqYlYkA0Ygy-22" vertex="1" connectable="0">
          <mxGeometry x="-0.1442" y="-4" relative="1" as="geometry">
            <mxPoint as="offset" />
          </mxGeometry>
        </mxCell>
        <mxCell id="gv2Mm_Y-joqYlYkA0Ygy-23" style="rounded=0;orthogonalLoop=1;jettySize=auto;html=1;" parent="1" source="gv2Mm_Y-joqYlYkA0Ygy-11" target="gv2Mm_Y-joqYlYkA0Ygy-18" edge="1">
          <mxGeometry relative="1" as="geometry" />
        </mxCell>
        <mxCell id="gv2Mm_Y-joqYlYkA0Ygy-28" value="homepage" style="edgeLabel;html=1;align=center;verticalAlign=middle;resizable=0;points=[];" parent="gv2Mm_Y-joqYlYkA0Ygy-23" vertex="1" connectable="0">
          <mxGeometry x="-0.1239" relative="1" as="geometry">
            <mxPoint as="offset" />
          </mxGeometry>
        </mxCell>
        <mxCell id="gv2Mm_Y-joqYlYkA0Ygy-24" style="rounded=0;orthogonalLoop=1;jettySize=auto;html=1;entryX=0.5;entryY=1;entryDx=0;entryDy=0;" parent="1" source="gv2Mm_Y-joqYlYkA0Ygy-11" target="gv2Mm_Y-joqYlYkA0Ygy-17" edge="1">
          <mxGeometry relative="1" as="geometry" />
        </mxCell>
        <mxCell id="gv2Mm_Y-joqYlYkA0Ygy-27" value="facebook" style="edgeLabel;html=1;align=center;verticalAlign=middle;resizable=0;points=[];" parent="gv2Mm_Y-joqYlYkA0Ygy-24" vertex="1" connectable="0">
          <mxGeometry x="0.0388" y="1" relative="1" as="geometry">
            <mxPoint as="offset" />
          </mxGeometry>
        </mxCell>
        <mxCell id="gv2Mm_Y-joqYlYkA0Ygy-25" style="rounded=0;orthogonalLoop=1;jettySize=auto;html=1;exitX=0;exitY=0;exitDx=0;exitDy=0;entryX=0.75;entryY=1;entryDx=0;entryDy=0;" parent="1" source="gv2Mm_Y-joqYlYkA0Ygy-11" target="gv2Mm_Y-joqYlYkA0Ygy-16" edge="1">
          <mxGeometry relative="1" as="geometry" />
        </mxCell>
        <mxCell id="gv2Mm_Y-joqYlYkA0Ygy-26" value="instagram" style="edgeLabel;html=1;align=center;verticalAlign=middle;resizable=0;points=[];fontColor=#000000;labelBackgroundColor=#FFFFFF;" parent="gv2Mm_Y-joqYlYkA0Ygy-25" vertex="1" connectable="0">
          <mxGeometry x="0.1071" y="-1" relative="1" as="geometry">
            <mxPoint as="offset" />
          </mxGeometry>
        </mxCell>
        <mxCell id="gv2Mm_Y-joqYlYkA0Ygy-11" value="&lt;font face=&quot;Verdana&quot;&gt;RedSocial&lt;/font&gt;" style="ellipse;whiteSpace=wrap;html=1;aspect=fixed;fillColor=#0050ef;strokeColor=#000000;fontColor=#ffffff;" parent="1" vertex="1">
          <mxGeometry x="320" width="80" height="80" as="geometry" />
        </mxCell>
        <mxCell id="gv2Mm_Y-joqYlYkA0Ygy-32" style="rounded=0;orthogonalLoop=1;jettySize=auto;html=1;exitX=0;exitY=1;exitDx=0;exitDy=0;entryX=1;entryY=0;entryDx=0;entryDy=0;" parent="1" source="gv2Mm_Y-joqYlYkA0Ygy-12" target="gv2Mm_Y-joqYlYkA0Ygy-10" edge="1">
          <mxGeometry relative="1" as="geometry" />
        </mxCell>
        <mxCell id="gv2Mm_Y-joqYlYkA0Ygy-36" value="tienePartidoPolitico" style="edgeLabel;html=1;align=center;verticalAlign=middle;resizable=0;points=[];" parent="gv2Mm_Y-joqYlYkA0Ygy-32" vertex="1" connectable="0">
          <mxGeometry x="0.0029" y="1" relative="1" as="geometry">
            <mxPoint x="1" as="offset" />
          </mxGeometry>
        </mxCell>
        <mxCell id="gv2Mm_Y-joqYlYkA0Ygy-34" style="edgeStyle=orthogonalEdgeStyle;rounded=0;orthogonalLoop=1;jettySize=auto;html=1;" parent="1" source="gv2Mm_Y-joqYlYkA0Ygy-12" target="gv2Mm_Y-joqYlYkA0Ygy-33" edge="1">
          <mxGeometry relative="1" as="geometry" />
        </mxCell>
        <mxCell id="gv2Mm_Y-joqYlYkA0Ygy-35" value="&lt;div&gt;nombrePacto&lt;/div&gt;" style="edgeLabel;html=1;align=center;verticalAlign=middle;resizable=0;points=[];" parent="gv2Mm_Y-joqYlYkA0Ygy-34" vertex="1" connectable="0">
          <mxGeometry x="-0.08" y="-2" relative="1" as="geometry">
            <mxPoint as="offset" />
          </mxGeometry>
        </mxCell>
        <mxCell id="gv2Mm_Y-joqYlYkA0Ygy-12" value="&lt;font face=&quot;Verdana&quot;&gt;Pacto&lt;/font&gt;" style="ellipse;whiteSpace=wrap;html=1;aspect=fixed;fillColor=#0050ef;strokeColor=#000000;fontColor=#ffffff;" parent="1" vertex="1">
          <mxGeometry x="570" y="-60" width="80" height="80" as="geometry" />
        </mxCell>
        <mxCell id="gv2Mm_Y-joqYlYkA0Ygy-16" value="String" style="rounded=0;whiteSpace=wrap;html=1;strokeColor=#000000;fillColor=#fdc502;" parent="1" vertex="1">
          <mxGeometry x="230" y="-50" width="70" height="20" as="geometry" />
        </mxCell>
        <mxCell id="gv2Mm_Y-joqYlYkA0Ygy-17" value="String" style="rounded=0;whiteSpace=wrap;html=1;strokeColor=#000000;fillColor=#fdc502;" parent="1" vertex="1">
          <mxGeometry x="280" y="-100" width="70" height="20" as="geometry" />
        </mxCell>
        <mxCell id="gv2Mm_Y-joqYlYkA0Ygy-18" value="String" style="rounded=0;whiteSpace=wrap;html=1;strokeColor=#000000;fillColor=#fdc502;" parent="1" vertex="1">
          <mxGeometry x="370" y="-100" width="70" height="20" as="geometry" />
        </mxCell>
        <mxCell id="gv2Mm_Y-joqYlYkA0Ygy-19" value="String" style="rounded=0;whiteSpace=wrap;html=1;strokeColor=#000000;fillColor=#fdc502;" parent="1" vertex="1">
          <mxGeometry x="420" y="-50" width="70" height="20" as="geometry" />
        </mxCell>
        <mxCell id="gv2Mm_Y-joqYlYkA0Ygy-33" value="String" style="rounded=0;whiteSpace=wrap;html=1;strokeColor=#000000;fillColor=#fdc502;" parent="1" vertex="1">
          <mxGeometry x="575" y="-120" width="70" height="20" as="geometry" />
        </mxCell>
        <mxCell id="gv2Mm_Y-joqYlYkA0Ygy-49" value="String" style="rounded=0;whiteSpace=wrap;html=1;strokeColor=#000000;fillColor=#fdc502;" parent="1" vertex="1">
          <mxGeometry x="160" y="250" width="70" height="20" as="geometry" />
        </mxCell>
        <mxCell id="gv2Mm_Y-joqYlYkA0Ygy-50" value="String" style="rounded=0;whiteSpace=wrap;html=1;strokeColor=#000000;fillColor=#fdc502;" parent="1" vertex="1">
          <mxGeometry x="165" y="290" width="70" height="20" as="geometry" />
        </mxCell>
        <mxCell id="gv2Mm_Y-joqYlYkA0Ygy-51" value="String" style="rounded=0;whiteSpace=wrap;html=1;strokeColor=#000000;fillColor=#fdc502;" parent="1" vertex="1">
          <mxGeometry x="200" y="330" width="70" height="20" as="geometry" />
        </mxCell>
        <mxCell id="gv2Mm_Y-joqYlYkA0Ygy-87" style="rounded=0;orthogonalLoop=1;jettySize=auto;html=1;entryX=1;entryY=0;entryDx=0;entryDy=0;" parent="1" source="gv2Mm_Y-joqYlYkA0Ygy-91" target="gv2Mm_Y-joqYlYkA0Ygy-94" edge="1">
          <mxGeometry relative="1" as="geometry" />
        </mxCell>
        <mxCell id="gv2Mm_Y-joqYlYkA0Ygy-88" value="&amp;nbsp;perteneceAComision&amp;nbsp; " style="edgeLabel;html=1;align=center;verticalAlign=middle;resizable=0;points=[];" parent="gv2Mm_Y-joqYlYkA0Ygy-87" vertex="1" connectable="0">
          <mxGeometry x="-0.05" y="3" relative="1" as="geometry">
            <mxPoint x="-4" y="-3" as="offset" />
          </mxGeometry>
        </mxCell>
        <mxCell id="gv2Mm_Y-joqYlYkA0Ygy-89" style="rounded=0;orthogonalLoop=1;jettySize=auto;html=1;" parent="1" source="gv2Mm_Y-joqYlYkA0Ygy-91" target="gv2Mm_Y-joqYlYkA0Ygy-106" edge="1">
          <mxGeometry relative="1" as="geometry" />
        </mxCell>
        <mxCell id="gv2Mm_Y-joqYlYkA0Ygy-90" value="&amp;nbsp;participaEnDiscurso&amp;nbsp; " style="edgeLabel;html=1;align=center;verticalAlign=middle;resizable=0;points=[];" parent="gv2Mm_Y-joqYlYkA0Ygy-89" vertex="1" connectable="0">
          <mxGeometry x="-0.2375" y="-2" relative="1" as="geometry">
            <mxPoint x="9" y="-2" as="offset" />
          </mxGeometry>
        </mxCell>
        <mxCell id="gv2Mm_Y-joqYlYkA0Ygy-116" style="edgeStyle=orthogonalEdgeStyle;rounded=0;orthogonalLoop=1;jettySize=auto;html=1;" parent="1" source="gv2Mm_Y-joqYlYkA0Ygy-91" target="gv2Mm_Y-joqYlYkA0Ygy-1" edge="1">
          <mxGeometry relative="1" as="geometry" />
        </mxCell>
        <mxCell id="gv2Mm_Y-joqYlYkA0Ygy-117" value="&lt;div&gt;subClassOf&lt;/div&gt;" style="edgeLabel;html=1;align=center;verticalAlign=middle;resizable=0;points=[];" parent="gv2Mm_Y-joqYlYkA0Ygy-116" vertex="1" connectable="0">
          <mxGeometry x="0.1833" y="-1" relative="1" as="geometry">
            <mxPoint y="21" as="offset" />
          </mxGeometry>
        </mxCell>
        <mxCell id="gv2Mm_Y-joqYlYkA0Ygy-91" value="&lt;font style=&quot;font-size: 11px;&quot; face=&quot;Verdana&quot;&gt;Constituyente&lt;/font&gt;" style="ellipse;whiteSpace=wrap;html=1;aspect=fixed;fillColor=#0050ef;strokeColor=#000000;fontColor=#ffffff;" parent="1" vertex="1">
          <mxGeometry x="320" y="400" width="80" height="80" as="geometry" />
        </mxCell>
        <mxCell id="gv2Mm_Y-joqYlYkA0Ygy-92" style="rounded=0;orthogonalLoop=1;jettySize=auto;html=1;entryX=0.5;entryY=0;entryDx=0;entryDy=0;" parent="1" source="gv2Mm_Y-joqYlYkA0Ygy-94" target="gv2Mm_Y-joqYlYkA0Ygy-110" edge="1">
          <mxGeometry relative="1" as="geometry" />
        </mxCell>
        <mxCell id="gv2Mm_Y-joqYlYkA0Ygy-93" value="nombreComision" style="edgeLabel;html=1;align=center;verticalAlign=middle;resizable=0;points=[];" parent="gv2Mm_Y-joqYlYkA0Ygy-92" vertex="1" connectable="0">
          <mxGeometry x="-0.24" y="-1" relative="1" as="geometry">
            <mxPoint as="offset" />
          </mxGeometry>
        </mxCell>
        <mxCell id="gv2Mm_Y-joqYlYkA0Ygy-94" value="&lt;font face=&quot;Verdana&quot;&gt;Comision&lt;/font&gt;" style="ellipse;whiteSpace=wrap;html=1;aspect=fixed;fillColor=#0050ef;strokeColor=#000000;fontColor=#ffffff;" parent="1" vertex="1">
          <mxGeometry x="200" y="500" width="80" height="80" as="geometry" />
        </mxCell>
        <mxCell id="gv2Mm_Y-joqYlYkA0Ygy-95" style="rounded=0;orthogonalLoop=1;jettySize=auto;html=1;" parent="1" source="gv2Mm_Y-joqYlYkA0Ygy-106" target="gv2Mm_Y-joqYlYkA0Ygy-109" edge="1">
          <mxGeometry relative="1" as="geometry" />
        </mxCell>
        <mxCell id="gv2Mm_Y-joqYlYkA0Ygy-96" value="tieneTopico" style="edgeLabel;html=1;align=center;verticalAlign=middle;resizable=0;points=[];" parent="gv2Mm_Y-joqYlYkA0Ygy-95" vertex="1" connectable="0">
          <mxGeometry x="-0.06" relative="1" as="geometry">
            <mxPoint as="offset" />
          </mxGeometry>
        </mxCell>
        <mxCell id="gv2Mm_Y-joqYlYkA0Ygy-97" style="rounded=0;orthogonalLoop=1;jettySize=auto;html=1;exitX=0.979;exitY=0.629;exitDx=0;exitDy=0;entryX=0;entryY=0.5;entryDx=0;entryDy=0;exitPerimeter=0;" parent="1" source="gv2Mm_Y-joqYlYkA0Ygy-106" target="gv2Mm_Y-joqYlYkA0Ygy-111" edge="1">
          <mxGeometry relative="1" as="geometry" />
        </mxCell>
        <mxCell id="gv2Mm_Y-joqYlYkA0Ygy-98" value="tipoDiscurso" style="edgeLabel;html=1;align=center;verticalAlign=middle;resizable=0;points=[];" parent="gv2Mm_Y-joqYlYkA0Ygy-97" vertex="1" connectable="0">
          <mxGeometry x="0.4116" relative="1" as="geometry">
            <mxPoint x="-20" y="-3" as="offset" />
          </mxGeometry>
        </mxCell>
        <mxCell id="gv2Mm_Y-joqYlYkA0Ygy-99" style="rounded=0;orthogonalLoop=1;jettySize=auto;html=1;entryX=0;entryY=0.75;entryDx=0;entryDy=0;" parent="1" source="gv2Mm_Y-joqYlYkA0Ygy-106" target="gv2Mm_Y-joqYlYkA0Ygy-114" edge="1">
          <mxGeometry relative="1" as="geometry" />
        </mxCell>
        <mxCell id="gv2Mm_Y-joqYlYkA0Ygy-100" value="duracion" style="edgeLabel;html=1;align=center;verticalAlign=middle;resizable=0;points=[];" parent="gv2Mm_Y-joqYlYkA0Ygy-99" vertex="1" connectable="0">
          <mxGeometry x="-0.3721" y="3" relative="1" as="geometry">
            <mxPoint x="12" y="2" as="offset" />
          </mxGeometry>
        </mxCell>
        <mxCell id="gv2Mm_Y-joqYlYkA0Ygy-101" style="rounded=0;orthogonalLoop=1;jettySize=auto;html=1;entryX=0.5;entryY=1;entryDx=0;entryDy=0;" parent="1" source="gv2Mm_Y-joqYlYkA0Ygy-106" target="gv2Mm_Y-joqYlYkA0Ygy-112" edge="1">
          <mxGeometry relative="1" as="geometry" />
        </mxCell>
        <mxCell id="gv2Mm_Y-joqYlYkA0Ygy-102" value="texto" style="edgeLabel;html=1;align=center;verticalAlign=middle;resizable=0;points=[];" parent="gv2Mm_Y-joqYlYkA0Ygy-101" vertex="1" connectable="0">
          <mxGeometry x="-0.2679" relative="1" as="geometry">
            <mxPoint x="2" y="-8" as="offset" />
          </mxGeometry>
        </mxCell>
        <mxCell id="gv2Mm_Y-joqYlYkA0Ygy-103" style="rounded=0;orthogonalLoop=1;jettySize=auto;html=1;entryX=0.25;entryY=1;entryDx=0;entryDy=0;" parent="1" source="gv2Mm_Y-joqYlYkA0Ygy-106" target="gv2Mm_Y-joqYlYkA0Ygy-113" edge="1">
          <mxGeometry relative="1" as="geometry" />
        </mxCell>
        <mxCell id="gv2Mm_Y-joqYlYkA0Ygy-104" value="Text" style="edgeLabel;html=1;align=center;verticalAlign=middle;resizable=0;points=[];" parent="gv2Mm_Y-joqYlYkA0Ygy-103" vertex="1" connectable="0">
          <mxGeometry x="0.041" relative="1" as="geometry">
            <mxPoint as="offset" />
          </mxGeometry>
        </mxCell>
        <mxCell id="gv2Mm_Y-joqYlYkA0Ygy-105" value="numeroSesion" style="edgeLabel;html=1;align=center;verticalAlign=middle;resizable=0;points=[];" parent="gv2Mm_Y-joqYlYkA0Ygy-103" vertex="1" connectable="0">
          <mxGeometry x="0.0183" y="-1" relative="1" as="geometry">
            <mxPoint as="offset" />
          </mxGeometry>
        </mxCell>
        <mxCell id="gv2Mm_Y-joqYlYkA0Ygy-106" value="&lt;font face=&quot;Verdana&quot;&gt;Discurso&lt;/font&gt;" style="ellipse;whiteSpace=wrap;html=1;aspect=fixed;fillColor=#0050ef;strokeColor=#000000;fontColor=#ffffff;" parent="1" vertex="1">
          <mxGeometry x="440" y="500" width="80" height="80" as="geometry" />
        </mxCell>
        <mxCell id="gv2Mm_Y-joqYlYkA0Ygy-107" style="rounded=0;orthogonalLoop=1;jettySize=auto;html=1;entryX=1;entryY=0.5;entryDx=0;entryDy=0;exitX=0;exitY=0.5;exitDx=0;exitDy=0;" parent="1" source="gv2Mm_Y-joqYlYkA0Ygy-109" target="gv2Mm_Y-joqYlYkA0Ygy-115" edge="1">
          <mxGeometry relative="1" as="geometry" />
        </mxCell>
        <mxCell id="gv2Mm_Y-joqYlYkA0Ygy-108" value="&amp;nbsp;nombreTopico&amp;nbsp; " style="edgeLabel;html=1;align=center;verticalAlign=middle;resizable=0;points=[];" parent="gv2Mm_Y-joqYlYkA0Ygy-107" vertex="1" connectable="0">
          <mxGeometry x="-0.5333" y="-3" relative="1" as="geometry">
            <mxPoint x="-32" y="3" as="offset" />
          </mxGeometry>
        </mxCell>
        <mxCell id="gv2Mm_Y-joqYlYkA0Ygy-109" value="&lt;font face=&quot;Verdana&quot;&gt;Topico&lt;/font&gt;" style="ellipse;whiteSpace=wrap;html=1;aspect=fixed;fillColor=#0050ef;strokeColor=#000000;fontColor=#ffffff;" parent="1" vertex="1">
          <mxGeometry x="440" y="640" width="80" height="80" as="geometry" />
        </mxCell>
        <mxCell id="gv2Mm_Y-joqYlYkA0Ygy-110" value="String" style="rounded=0;whiteSpace=wrap;html=1;strokeColor=#000000;fillColor=#fdc502;" parent="1" vertex="1">
          <mxGeometry x="205" y="630" width="70" height="20" as="geometry" />
        </mxCell>
        <mxCell id="gv2Mm_Y-joqYlYkA0Ygy-111" value="String" style="rounded=0;whiteSpace=wrap;html=1;strokeColor=#000000;fillColor=#fdc502;" parent="1" vertex="1">
          <mxGeometry x="610" y="540" width="70" height="20" as="geometry" />
        </mxCell>
        <mxCell id="gv2Mm_Y-joqYlYkA0Ygy-112" value="String" style="rounded=0;whiteSpace=wrap;html=1;strokeColor=#000000;fillColor=#fdc502;" parent="1" vertex="1">
          <mxGeometry x="450" y="420" width="70" height="20" as="geometry" />
        </mxCell>
        <mxCell id="gv2Mm_Y-joqYlYkA0Ygy-113" value="String" style="rounded=0;whiteSpace=wrap;html=1;strokeColor=#000000;fillColor=#fdc502;" parent="1" vertex="1">
          <mxGeometry x="540" y="440" width="70" height="20" as="geometry" />
        </mxCell>
        <mxCell id="gv2Mm_Y-joqYlYkA0Ygy-114" value="String" style="rounded=0;whiteSpace=wrap;html=1;strokeColor=#000000;fillColor=#fdc502;" parent="1" vertex="1">
          <mxGeometry x="600" y="481.15999999999997" width="70" height="20" as="geometry" />
        </mxCell>
        <mxCell id="gv2Mm_Y-joqYlYkA0Ygy-115" value="String" style="rounded=0;whiteSpace=wrap;html=1;strokeColor=#000000;fillColor=#fdc502;" parent="1" vertex="1">
          <mxGeometry x="250" y="670" width="70" height="20" as="geometry" />
        </mxCell>
        <mxCell id="gv2Mm_Y-joqYlYkA0Ygy-118" style="rounded=0;orthogonalLoop=1;jettySize=auto;html=1;entryX=0.157;entryY=0.94;entryDx=0;entryDy=0;exitX=0.904;exitY=0.255;exitDx=0;exitDy=0;entryPerimeter=0;exitPerimeter=0;" parent="1" source="gv2Mm_Y-joqYlYkA0Ygy-124" target="gv2Mm_Y-joqYlYkA0Ygy-138" edge="1">
          <mxGeometry relative="1" as="geometry">
            <mxPoint x="843.5594334464063" y="688.8342657363256" as="sourcePoint" />
            <mxPoint x="870" y="611.16" as="targetPoint" />
          </mxGeometry>
        </mxCell>
        <mxCell id="gv2Mm_Y-joqYlYkA0Ygy-119" value="isConstitutionOf" style="edgeLabel;html=1;align=center;verticalAlign=middle;resizable=0;points=[];" parent="gv2Mm_Y-joqYlYkA0Ygy-118" vertex="1" connectable="0">
          <mxGeometry x="0.0586" y="-1" relative="1" as="geometry">
            <mxPoint x="-51" y="46" as="offset" />
          </mxGeometry>
        </mxCell>
        <mxCell id="gv2Mm_Y-joqYlYkA0Ygy-120" style="rounded=0;orthogonalLoop=1;jettySize=auto;html=1;exitX=0;exitY=1;exitDx=0;exitDy=0;entryX=0.5;entryY=0;entryDx=0;entryDy=0;" parent="1" source="gv2Mm_Y-joqYlYkA0Ygy-124" edge="1">
          <mxGeometry relative="1" as="geometry">
            <mxPoint x="670" y="779.5199999999999" as="targetPoint" />
          </mxGeometry>
        </mxCell>
        <mxCell id="gv2Mm_Y-joqYlYkA0Ygy-121" value="event_type" style="edgeLabel;html=1;align=center;verticalAlign=middle;resizable=0;points=[];" parent="gv2Mm_Y-joqYlYkA0Ygy-120" vertex="1" connectable="0">
          <mxGeometry x="-0.0415" y="-1" relative="1" as="geometry">
            <mxPoint x="3" y="-12" as="offset" />
          </mxGeometry>
        </mxCell>
        <mxCell id="gv2Mm_Y-joqYlYkA0Ygy-122" style="rounded=0;orthogonalLoop=1;jettySize=auto;html=1;exitX=1;exitY=1;exitDx=0;exitDy=0;entryX=0.617;entryY=0.02;entryDx=0;entryDy=0;entryPerimeter=0;" parent="1" source="gv2Mm_Y-joqYlYkA0Ygy-124" target="gv2Mm_Y-joqYlYkA0Ygy-126" edge="1">
          <mxGeometry relative="1" as="geometry" />
        </mxCell>
        <mxCell id="gv2Mm_Y-joqYlYkA0Ygy-123" value="event_year" style="edgeLabel;html=1;align=center;verticalAlign=middle;resizable=0;points=[];" parent="gv2Mm_Y-joqYlYkA0Ygy-122" vertex="1" connectable="0">
          <mxGeometry x="-0.3203" y="-1" relative="1" as="geometry">
            <mxPoint x="10" y="5" as="offset" />
          </mxGeometry>
        </mxCell>
        <mxCell id="gv2Mm_Y-joqYlYkA0Ygy-124" value="&lt;font face=&quot;Verdana&quot;&gt;Event&lt;/font&gt;" style="ellipse;whiteSpace=wrap;html=1;aspect=fixed;fillColor=#0050ef;strokeColor=#000000;fontColor=#ffffff;" parent="1" vertex="1">
          <mxGeometry x="725" y="639.52" width="80" height="80" as="geometry" />
        </mxCell>
        <mxCell id="gv2Mm_Y-joqYlYkA0Ygy-126" value="Int" style="rounded=0;whiteSpace=wrap;html=1;strokeColor=#000000;fillColor=#fdc502;" parent="1" vertex="1">
          <mxGeometry x="815" y="779.52" width="70" height="20" as="geometry" />
        </mxCell>
        <mxCell id="gv2Mm_Y-joqYlYkA0Ygy-127" value="String" style="rounded=0;whiteSpace=wrap;html=1;strokeColor=#000000;fillColor=#fdc502;" parent="1" vertex="1">
          <mxGeometry x="775" y="819.52" width="70" height="20" as="geometry" />
        </mxCell>
        <mxCell id="gv2Mm_Y-joqYlYkA0Ygy-128" value="Int" style="rounded=0;whiteSpace=wrap;html=1;strokeColor=#000000;fillColor=#fdc502;" parent="1" vertex="1">
          <mxGeometry x="695" y="819.52" width="70" height="20" as="geometry" />
        </mxCell>
        <mxCell id="gv2Mm_Y-joqYlYkA0Ygy-129" value="String" style="rounded=0;whiteSpace=wrap;html=1;strokeColor=#000000;fillColor=#fdc502;" parent="1" vertex="1">
          <mxGeometry x="635" y="779.52" width="70" height="20" as="geometry" />
        </mxCell>
        <mxCell id="gv2Mm_Y-joqYlYkA0Ygy-130" style="rounded=0;orthogonalLoop=1;jettySize=auto;html=1;exitX=0.354;exitY=0.988;exitDx=0;exitDy=0;entryX=0.5;entryY=0;entryDx=0;entryDy=0;exitPerimeter=0;" parent="1" source="gv2Mm_Y-joqYlYkA0Ygy-124" target="gv2Mm_Y-joqYlYkA0Ygy-128" edge="1">
          <mxGeometry relative="1" as="geometry">
            <mxPoint x="715" y="699.52" as="sourcePoint" />
            <mxPoint x="676" y="667.52" as="targetPoint" />
          </mxGeometry>
        </mxCell>
        <mxCell id="gv2Mm_Y-joqYlYkA0Ygy-131" value="id" style="edgeLabel;html=1;align=center;verticalAlign=middle;resizable=0;points=[];" parent="gv2Mm_Y-joqYlYkA0Ygy-130" vertex="1" connectable="0">
          <mxGeometry x="-0.0415" y="-1" relative="1" as="geometry">
            <mxPoint x="-1" y="2" as="offset" />
          </mxGeometry>
        </mxCell>
        <mxCell id="gv2Mm_Y-joqYlYkA0Ygy-132" style="rounded=0;orthogonalLoop=1;jettySize=auto;html=1;exitX=0.656;exitY=0.988;exitDx=0;exitDy=0;entryX=0.5;entryY=0;entryDx=0;entryDy=0;exitPerimeter=0;" parent="1" source="gv2Mm_Y-joqYlYkA0Ygy-124" target="gv2Mm_Y-joqYlYkA0Ygy-127" edge="1">
          <mxGeometry relative="1" as="geometry">
            <mxPoint x="757" y="671.52" as="sourcePoint" />
            <mxPoint x="718" y="639.52" as="targetPoint" />
          </mxGeometry>
        </mxCell>
        <mxCell id="gv2Mm_Y-joqYlYkA0Ygy-133" value="country" style="edgeLabel;html=1;align=center;verticalAlign=middle;resizable=0;points=[];" parent="gv2Mm_Y-joqYlYkA0Ygy-132" vertex="1" connectable="0">
          <mxGeometry x="-0.0415" y="-1" relative="1" as="geometry">
            <mxPoint x="-1" y="4" as="offset" />
          </mxGeometry>
        </mxCell>
        <mxCell id="gv2Mm_Y-joqYlYkA0Ygy-134" value="&lt;font style=&quot;font-size: 11px;&quot; face=&quot;Verdana&quot;&gt;Lugar&lt;/font&gt;" style="ellipse;whiteSpace=wrap;html=1;aspect=fixed;fillColor=#0050ef;strokeColor=#000000;fontColor=#ffffff;" parent="1" vertex="1">
          <mxGeometry x="1130" y="251.16" width="80" height="80" as="geometry" />
        </mxCell>
        <mxCell id="gv2Mm_Y-joqYlYkA0Ygy-135" value="&lt;font face=&quot;Verdana&quot;&gt;Grupo&lt;/font&gt;" style="ellipse;whiteSpace=wrap;html=1;aspect=fixed;fillColor=#0050ef;strokeColor=#000000;fontColor=#ffffff;" parent="1" vertex="1">
          <mxGeometry x="1310" y="431.15999999999997" width="80" height="80" as="geometry" />
        </mxCell>
        <mxCell id="gv2Mm_Y-joqYlYkA0Ygy-136" style="rounded=0;orthogonalLoop=1;jettySize=auto;html=1;entryX=0.017;entryY=0.67;entryDx=0;entryDy=0;exitX=0.982;exitY=0.653;exitDx=0;exitDy=0;exitPerimeter=0;entryPerimeter=0;" parent="1" source="gv2Mm_Y-joqYlYkA0Ygy-138" target="gv2Mm_Y-joqYlYkA0Ygy-135" edge="1">
          <mxGeometry relative="1" as="geometry">
            <mxPoint x="1130" y="471.15999999999997" as="sourcePoint" />
            <mxPoint x="1230" y="481.15999999999997" as="targetPoint" />
          </mxGeometry>
        </mxCell>
        <mxCell id="gv2Mm_Y-joqYlYkA0Ygy-137" value="isInGroup" style="edgeLabel;html=1;align=center;verticalAlign=middle;resizable=0;points=[];" parent="gv2Mm_Y-joqYlYkA0Ygy-136" vertex="1" connectable="0">
          <mxGeometry x="-0.2116" y="-1" relative="1" as="geometry">
            <mxPoint x="18" y="-4" as="offset" />
          </mxGeometry>
        </mxCell>
        <mxCell id="gv2Mm_Y-joqYlYkA0Ygy-138" value="&lt;font face=&quot;Verdana&quot;&gt;Territorio&lt;/font&gt;" style="ellipse;whiteSpace=wrap;html=1;aspect=fixed;fillColor=#0050ef;strokeColor=#000000;fontColor=#ffffff;" parent="1" vertex="1">
          <mxGeometry x="970" y="431.15999999999997" width="80" height="80" as="geometry" />
        </mxCell>
        <mxCell id="gv2Mm_Y-joqYlYkA0Ygy-139" value="&lt;font face=&quot;Verdana&quot;&gt;RegiÃ³n GeogrÃ¡fica&lt;br&gt;&lt;/font&gt;" style="ellipse;whiteSpace=wrap;html=1;aspect=fixed;fillColor=#0050ef;strokeColor=#000000;fontColor=#ffffff;" parent="1" vertex="1">
          <mxGeometry x="1480" y="521.16" width="80" height="80" as="geometry" />
        </mxCell>
        <mxCell id="gv2Mm_Y-joqYlYkA0Ygy-140" value="&lt;font face=&quot;Verdana&quot;&gt;RegiÃ³n EconÃ³mica&lt;br&gt;&lt;/font&gt;" style="ellipse;whiteSpace=wrap;html=1;aspect=fixed;fillColor=#0050ef;strokeColor=#000000;fontColor=#ffffff;" parent="1" vertex="1">
          <mxGeometry x="1400" y="571.16" width="80" height="80" as="geometry" />
        </mxCell>
        <mxCell id="gv2Mm_Y-joqYlYkA0Ygy-141" value="&lt;div style=&quot;font-size: 11px;&quot;&gt;&lt;font style=&quot;font-size: 11px;&quot; face=&quot;Verdana&quot;&gt;OrganizaciÃ³n&lt;/font&gt;&lt;/div&gt;" style="ellipse;whiteSpace=wrap;html=1;aspect=fixed;fillColor=#0050ef;strokeColor=#000000;fontColor=#ffffff;" parent="1" vertex="1">
          <mxGeometry x="1490" y="431.15999999999997" width="80" height="80" as="geometry" />
        </mxCell>
        <mxCell id="gv2Mm_Y-joqYlYkA0Ygy-142" style="rounded=0;orthogonalLoop=1;jettySize=auto;html=1;exitX=0.5;exitY=0;exitDx=0;exitDy=0;entryX=0.5;entryY=1;entryDx=0;entryDy=0;" parent="1" source="gv2Mm_Y-joqYlYkA0Ygy-144" target="gv2Mm_Y-joqYlYkA0Ygy-135" edge="1">
          <mxGeometry relative="1" as="geometry" />
        </mxCell>
        <mxCell id="gv2Mm_Y-joqYlYkA0Ygy-143" value="subClassOf" style="edgeLabel;html=1;align=center;verticalAlign=middle;resizable=0;points=[];" parent="gv2Mm_Y-joqYlYkA0Ygy-142" vertex="1" connectable="0">
          <mxGeometry x="-0.2123" y="-1" relative="1" as="geometry">
            <mxPoint x="-1" y="-6" as="offset" />
          </mxGeometry>
        </mxCell>
        <mxCell id="gv2Mm_Y-joqYlYkA0Ygy-144" value="&lt;font face=&quot;Verdana&quot;&gt;Grupo&lt;/font&gt; Especial" style="ellipse;whiteSpace=wrap;html=1;aspect=fixed;fillColor=#0050ef;strokeColor=#000000;fontColor=#ffffff;" parent="1" vertex="1">
          <mxGeometry x="1310" y="571.16" width="80" height="80" as="geometry" />
        </mxCell>
        <mxCell id="gv2Mm_Y-joqYlYkA0Ygy-145" style="rounded=0;orthogonalLoop=1;jettySize=auto;html=1;exitX=0.27;exitY=0.039;exitDx=0;exitDy=0;exitPerimeter=0;" parent="1" source="gv2Mm_Y-joqYlYkA0Ygy-140" target="gv2Mm_Y-joqYlYkA0Ygy-135" edge="1">
          <mxGeometry relative="1" as="geometry">
            <mxPoint x="1331" y="583.16" as="sourcePoint" />
            <mxPoint x="1349" y="519.16" as="targetPoint" />
          </mxGeometry>
        </mxCell>
        <mxCell id="gv2Mm_Y-joqYlYkA0Ygy-146" value="subClassOf" style="edgeLabel;html=1;align=center;verticalAlign=middle;resizable=0;points=[];" parent="gv2Mm_Y-joqYlYkA0Ygy-145" vertex="1" connectable="0">
          <mxGeometry x="-0.2123" y="-1" relative="1" as="geometry">
            <mxPoint x="10" y="6" as="offset" />
          </mxGeometry>
        </mxCell>
        <mxCell id="gv2Mm_Y-joqYlYkA0Ygy-147" style="rounded=0;orthogonalLoop=1;jettySize=auto;html=1;exitX=0.061;exitY=0.202;exitDx=0;exitDy=0;exitPerimeter=0;" parent="1" source="gv2Mm_Y-joqYlYkA0Ygy-139" target="gv2Mm_Y-joqYlYkA0Ygy-135" edge="1">
          <mxGeometry relative="1" as="geometry">
            <mxPoint x="1490" y="461.15999999999997" as="sourcePoint" />
            <mxPoint x="1359" y="529.16" as="targetPoint" />
          </mxGeometry>
        </mxCell>
        <mxCell id="gv2Mm_Y-joqYlYkA0Ygy-148" value="subClassOf" style="edgeLabel;html=1;align=center;verticalAlign=middle;resizable=0;points=[];" parent="gv2Mm_Y-joqYlYkA0Ygy-147" vertex="1" connectable="0">
          <mxGeometry x="-0.2123" y="-1" relative="1" as="geometry">
            <mxPoint x="14" y="4" as="offset" />
          </mxGeometry>
        </mxCell>
        <mxCell id="gv2Mm_Y-joqYlYkA0Ygy-149" style="rounded=0;orthogonalLoop=1;jettySize=auto;html=1;exitX=0;exitY=0.5;exitDx=0;exitDy=0;" parent="1" source="gv2Mm_Y-joqYlYkA0Ygy-141" target="gv2Mm_Y-joqYlYkA0Ygy-135" edge="1">
          <mxGeometry relative="1" as="geometry">
            <mxPoint x="1351" y="603.16" as="sourcePoint" />
            <mxPoint x="1369" y="539.16" as="targetPoint" />
          </mxGeometry>
        </mxCell>
        <mxCell id="gv2Mm_Y-joqYlYkA0Ygy-150" value="subClassOf" style="edgeLabel;html=1;align=center;verticalAlign=middle;resizable=0;points=[];" parent="gv2Mm_Y-joqYlYkA0Ygy-149" vertex="1" connectable="0">
          <mxGeometry x="-0.2123" y="-1" relative="1" as="geometry">
            <mxPoint x="-5" as="offset" />
          </mxGeometry>
        </mxCell>
        <mxCell id="gv2Mm_Y-joqYlYkA0Ygy-151" style="rounded=0;orthogonalLoop=1;jettySize=auto;html=1;exitX=-0.019;exitY=0.38;exitDx=0;exitDy=0;entryX=0.981;entryY=0.38;entryDx=0;entryDy=0;entryPerimeter=0;exitPerimeter=0;" parent="1" source="gv2Mm_Y-joqYlYkA0Ygy-135" target="gv2Mm_Y-joqYlYkA0Ygy-138" edge="1">
          <mxGeometry relative="1" as="geometry">
            <mxPoint x="1103" y="411.15999999999997" as="sourcePoint" />
            <mxPoint x="1265" y="413.15999999999997" as="targetPoint" />
          </mxGeometry>
        </mxCell>
        <mxCell id="gv2Mm_Y-joqYlYkA0Ygy-152" value="hasMember" style="edgeLabel;html=1;align=center;verticalAlign=middle;resizable=0;points=[];" parent="gv2Mm_Y-joqYlYkA0Ygy-151" vertex="1" connectable="0">
          <mxGeometry x="-0.2116" y="-1" relative="1" as="geometry">
            <mxPoint x="-36" y="1" as="offset" />
          </mxGeometry>
        </mxCell>
        <mxCell id="gv2Mm_Y-joqYlYkA0Ygy-153" value="&lt;font face=&quot;Verdana&quot;&gt;Otro&lt;/font&gt;" style="ellipse;whiteSpace=wrap;html=1;aspect=fixed;fillColor=#0050ef;strokeColor=#000000;fontColor=#ffffff;" parent="1" vertex="1">
          <mxGeometry x="760" y="521.16" width="80" height="80" as="geometry" />
        </mxCell>
        <mxCell id="gv2Mm_Y-joqYlYkA0Ygy-154" value="&lt;font face=&quot;Verdana&quot;&gt;Dsiputado&lt;/font&gt;" style="ellipse;whiteSpace=wrap;html=1;aspect=fixed;fillColor=#0050ef;strokeColor=#000000;fontColor=#ffffff;" parent="1" vertex="1">
          <mxGeometry x="720" y="431.15999999999997" width="80" height="80" as="geometry" />
        </mxCell>
        <mxCell id="gv2Mm_Y-joqYlYkA0Ygy-155" value="&lt;font face=&quot;Verdana&quot;&gt;Auto Gobierno&lt;br&gt;&lt;/font&gt;" style="ellipse;whiteSpace=wrap;html=1;aspect=fixed;fillColor=#0050ef;strokeColor=#000000;fontColor=#ffffff;" parent="1" vertex="1">
          <mxGeometry x="770" y="341.15999999999997" width="80" height="80" as="geometry" />
        </mxCell>
        <mxCell id="gv2Mm_Y-joqYlYkA0Ygy-156" style="rounded=0;orthogonalLoop=1;jettySize=auto;html=1;exitX=0.354;exitY=0.048;exitDx=0;exitDy=0;entryX=1;entryY=1;entryDx=0;entryDy=0;exitPerimeter=0;" parent="1" source="gv2Mm_Y-joqYlYkA0Ygy-135" target="gv2Mm_Y-joqYlYkA0Ygy-134" edge="1">
          <mxGeometry relative="1" as="geometry">
            <mxPoint x="1282" y="351.15999999999997" as="sourcePoint" />
            <mxPoint x="1200" y="378.15999999999997" as="targetPoint" />
          </mxGeometry>
        </mxCell>
        <mxCell id="gv2Mm_Y-joqYlYkA0Ygy-157" value="subClassOf" style="edgeLabel;html=1;align=center;verticalAlign=middle;resizable=0;points=[];" parent="gv2Mm_Y-joqYlYkA0Ygy-156" vertex="1" connectable="0">
          <mxGeometry x="-0.2123" y="-1" relative="1" as="geometry">
            <mxPoint x="-5" as="offset" />
          </mxGeometry>
        </mxCell>
        <mxCell id="gv2Mm_Y-joqYlYkA0Ygy-158" style="rounded=0;orthogonalLoop=1;jettySize=auto;html=1;exitX=0.771;exitY=0.058;exitDx=0;exitDy=0;entryX=0;entryY=1;entryDx=0;entryDy=0;exitPerimeter=0;" parent="1" source="gv2Mm_Y-joqYlYkA0Ygy-138" target="gv2Mm_Y-joqYlYkA0Ygy-134" edge="1">
          <mxGeometry relative="1" as="geometry">
            <mxPoint x="1082" y="351.15999999999997" as="sourcePoint" />
            <mxPoint x="1000" y="378.15999999999997" as="targetPoint" />
          </mxGeometry>
        </mxCell>
        <mxCell id="gv2Mm_Y-joqYlYkA0Ygy-159" value="subClassOf" style="edgeLabel;html=1;align=center;verticalAlign=middle;resizable=0;points=[];" parent="gv2Mm_Y-joqYlYkA0Ygy-158" vertex="1" connectable="0">
          <mxGeometry x="-0.2123" y="-1" relative="1" as="geometry">
            <mxPoint x="-5" as="offset" />
          </mxGeometry>
        </mxCell>
        <mxCell id="gv2Mm_Y-joqYlYkA0Ygy-160" style="rounded=0;orthogonalLoop=1;jettySize=auto;html=1;" parent="1" source="gv2Mm_Y-joqYlYkA0Ygy-153" target="gv2Mm_Y-joqYlYkA0Ygy-138" edge="1">
          <mxGeometry relative="1" as="geometry">
            <mxPoint x="1152" y="564.16" as="sourcePoint" />
            <mxPoint x="1070" y="591.16" as="targetPoint" />
          </mxGeometry>
        </mxCell>
        <mxCell id="gv2Mm_Y-joqYlYkA0Ygy-161" value="subClassOf" style="edgeLabel;html=1;align=center;verticalAlign=middle;resizable=0;points=[];" parent="gv2Mm_Y-joqYlYkA0Ygy-160" vertex="1" connectable="0">
          <mxGeometry x="-0.2123" y="-1" relative="1" as="geometry">
            <mxPoint x="-5" as="offset" />
          </mxGeometry>
        </mxCell>
        <mxCell id="gv2Mm_Y-joqYlYkA0Ygy-162" style="rounded=0;orthogonalLoop=1;jettySize=auto;html=1;" parent="1" source="gv2Mm_Y-joqYlYkA0Ygy-154" target="gv2Mm_Y-joqYlYkA0Ygy-138" edge="1">
          <mxGeometry relative="1" as="geometry">
            <mxPoint x="1042" y="304.15999999999997" as="sourcePoint" />
            <mxPoint x="960" y="331.15999999999997" as="targetPoint" />
          </mxGeometry>
        </mxCell>
        <mxCell id="gv2Mm_Y-joqYlYkA0Ygy-163" value="subClassOf" style="edgeLabel;html=1;align=center;verticalAlign=middle;resizable=0;points=[];" parent="gv2Mm_Y-joqYlYkA0Ygy-162" vertex="1" connectable="0">
          <mxGeometry x="-0.2123" y="-1" relative="1" as="geometry">
            <mxPoint x="2" y="-4" as="offset" />
          </mxGeometry>
        </mxCell>
        <mxCell id="gv2Mm_Y-joqYlYkA0Ygy-164" style="rounded=0;orthogonalLoop=1;jettySize=auto;html=1;entryX=0.05;entryY=0.288;entryDx=0;entryDy=0;entryPerimeter=0;" parent="1" source="gv2Mm_Y-joqYlYkA0Ygy-155" target="gv2Mm_Y-joqYlYkA0Ygy-138" edge="1">
          <mxGeometry relative="1" as="geometry">
            <mxPoint x="892" y="311.15999999999997" as="sourcePoint" />
            <mxPoint x="881.04" y="440.5999999999998" as="targetPoint" />
          </mxGeometry>
        </mxCell>
        <mxCell id="gv2Mm_Y-joqYlYkA0Ygy-165" value="subClassOf" style="edgeLabel;html=1;align=center;verticalAlign=middle;resizable=0;points=[];" parent="gv2Mm_Y-joqYlYkA0Ygy-164" vertex="1" connectable="0">
          <mxGeometry x="-0.2123" y="-1" relative="1" as="geometry">
            <mxPoint x="-6" y="-10" as="offset" />
          </mxGeometry>
        </mxCell>
        <mxCell id="gv2Mm_Y-joqYlYkA0Ygy-166" value="String" style="rounded=0;whiteSpace=wrap;html=1;strokeColor=#000000;fillColor=#fdc502;" parent="1" vertex="1">
          <mxGeometry x="1135" y="501.15999999999997" width="70" height="20" as="geometry" />
        </mxCell>
        <mxCell id="gv2Mm_Y-joqYlYkA0Ygy-167" value="String" style="rounded=0;whiteSpace=wrap;html=1;strokeColor=#000000;fillColor=#fdc502;" parent="1" vertex="1">
          <mxGeometry x="975" y="641.16" width="70" height="20" as="geometry" />
        </mxCell>
        <mxCell id="gv2Mm_Y-joqYlYkA0Ygy-168" value="String" style="rounded=0;whiteSpace=wrap;html=1;strokeColor=#000000;fillColor=#fdc502;" parent="1" vertex="1">
          <mxGeometry x="1130" y="601.16" width="70" height="20" as="geometry" />
        </mxCell>
        <mxCell id="gv2Mm_Y-joqYlYkA0Ygy-169" value="String" style="rounded=0;whiteSpace=wrap;html=1;strokeColor=#000000;fillColor=#fdc502;" parent="1" vertex="1">
          <mxGeometry x="1130" y="551.16" width="70" height="20" as="geometry" />
        </mxCell>
        <mxCell id="gv2Mm_Y-joqYlYkA0Ygy-170" value="String" style="rounded=0;whiteSpace=wrap;html=1;strokeColor=#000000;fillColor=#fdc502;" parent="1" vertex="1">
          <mxGeometry x="910" y="611.16" width="70" height="20" as="geometry" />
        </mxCell>
        <mxCell id="gv2Mm_Y-joqYlYkA0Ygy-171" value="String" style="rounded=0;whiteSpace=wrap;html=1;strokeColor=#000000;fillColor=#fdc502;" parent="1" vertex="1">
          <mxGeometry x="1050" y="611.16" width="70" height="20" as="geometry" />
        </mxCell>
        <mxCell id="gv2Mm_Y-joqYlYkA0Ygy-172" value="" style="endArrow=classic;html=1;rounded=0;exitX=0.369;exitY=0.953;exitDx=0;exitDy=0;entryX=0.54;entryY=-0.042;entryDx=0;entryDy=0;exitPerimeter=0;entryPerimeter=0;" parent="1" source="gv2Mm_Y-joqYlYkA0Ygy-138" target="gv2Mm_Y-joqYlYkA0Ygy-170" edge="1">
          <mxGeometry width="50" height="50" relative="1" as="geometry">
            <mxPoint x="1010" y="581.16" as="sourcePoint" />
            <mxPoint x="1060" y="531.16" as="targetPoint" />
          </mxGeometry>
        </mxCell>
        <mxCell id="gv2Mm_Y-joqYlYkA0Ygy-173" value="codeUN" style="edgeLabel;html=1;align=center;verticalAlign=middle;resizable=0;points=[];" parent="gv2Mm_Y-joqYlYkA0Ygy-172" vertex="1" connectable="0">
          <mxGeometry x="0.4107" y="1" relative="1" as="geometry">
            <mxPoint x="-1" y="-2" as="offset" />
          </mxGeometry>
        </mxCell>
        <mxCell id="gv2Mm_Y-joqYlYkA0Ygy-174" value="" style="endArrow=classic;html=1;rounded=0;exitX=0.5;exitY=1;exitDx=0;exitDy=0;entryX=0.5;entryY=0;entryDx=0;entryDy=0;" parent="1" source="gv2Mm_Y-joqYlYkA0Ygy-138" target="gv2Mm_Y-joqYlYkA0Ygy-167" edge="1">
          <mxGeometry width="50" height="50" relative="1" as="geometry">
            <mxPoint x="1020" y="591.16" as="sourcePoint" />
            <mxPoint x="1070" y="541.16" as="targetPoint" />
          </mxGeometry>
        </mxCell>
        <mxCell id="gv2Mm_Y-joqYlYkA0Ygy-175" value="codeISO3" style="edgeLabel;html=1;align=center;verticalAlign=middle;resizable=0;points=[];" parent="gv2Mm_Y-joqYlYkA0Ygy-174" vertex="1" connectable="0">
          <mxGeometry x="0.3347" y="-2" relative="1" as="geometry">
            <mxPoint x="3" y="13" as="offset" />
          </mxGeometry>
        </mxCell>
        <mxCell id="gv2Mm_Y-joqYlYkA0Ygy-176" value="" style="endArrow=classic;html=1;rounded=0;exitX=0.713;exitY=0.96;exitDx=0;exitDy=0;entryX=0.496;entryY=0.123;entryDx=0;entryDy=0;entryPerimeter=0;exitPerimeter=0;" parent="1" source="gv2Mm_Y-joqYlYkA0Ygy-138" target="gv2Mm_Y-joqYlYkA0Ygy-171" edge="1">
          <mxGeometry width="50" height="50" relative="1" as="geometry">
            <mxPoint x="1030" y="601.16" as="sourcePoint" />
            <mxPoint x="1080" y="551.16" as="targetPoint" />
          </mxGeometry>
        </mxCell>
        <mxCell id="gv2Mm_Y-joqYlYkA0Ygy-177" value="nameOfficialEN" style="edgeLabel;html=1;align=center;verticalAlign=middle;resizable=0;points=[];" parent="gv2Mm_Y-joqYlYkA0Ygy-176" vertex="1" connectable="0">
          <mxGeometry x="0.5367" relative="1" as="geometry">
            <mxPoint x="-12" y="-20" as="offset" />
          </mxGeometry>
        </mxCell>
        <mxCell id="gv2Mm_Y-joqYlYkA0Ygy-178" value="" style="endArrow=classic;html=1;rounded=0;entryX=0.25;entryY=0;entryDx=0;entryDy=0;exitX=0.804;exitY=0.888;exitDx=0;exitDy=0;exitPerimeter=0;" parent="1" source="gv2Mm_Y-joqYlYkA0Ygy-138" target="gv2Mm_Y-joqYlYkA0Ygy-168" edge="1">
          <mxGeometry width="50" height="50" relative="1" as="geometry">
            <mxPoint x="1020" y="501.15999999999997" as="sourcePoint" />
            <mxPoint x="1010" y="656.16" as="targetPoint" />
          </mxGeometry>
        </mxCell>
        <mxCell id="gv2Mm_Y-joqYlYkA0Ygy-179" value="nameOfficialES" style="edgeLabel;html=1;align=center;verticalAlign=middle;resizable=0;points=[];" parent="gv2Mm_Y-joqYlYkA0Ygy-178" vertex="1" connectable="0">
          <mxGeometry x="0.4086" relative="1" as="geometry">
            <mxPoint x="11" y="13" as="offset" />
          </mxGeometry>
        </mxCell>
        <mxCell id="gv2Mm_Y-joqYlYkA0Ygy-180" value="" style="endArrow=classic;html=1;rounded=0;entryX=0.25;entryY=0;entryDx=0;entryDy=0;exitX=1;exitY=1;exitDx=0;exitDy=0;" parent="1" source="gv2Mm_Y-joqYlYkA0Ygy-138" target="gv2Mm_Y-joqYlYkA0Ygy-169" edge="1">
          <mxGeometry width="50" height="50" relative="1" as="geometry">
            <mxPoint x="1022" y="509.15999999999997" as="sourcePoint" />
            <mxPoint x="956" y="623.16" as="targetPoint" />
          </mxGeometry>
        </mxCell>
        <mxCell id="gv2Mm_Y-joqYlYkA0Ygy-181" value="nameShortEN" style="edgeLabel;html=1;align=center;verticalAlign=middle;resizable=0;points=[];" parent="gv2Mm_Y-joqYlYkA0Ygy-180" vertex="1" connectable="0">
          <mxGeometry x="-0.137" y="-1" relative="1" as="geometry">
            <mxPoint x="13" y="3" as="offset" />
          </mxGeometry>
        </mxCell>
        <mxCell id="gv2Mm_Y-joqYlYkA0Ygy-182" value="" style="endArrow=classic;html=1;rounded=0;exitX=0.929;exitY=0.76;exitDx=0;exitDy=0;entryX=0;entryY=0.5;entryDx=0;entryDy=0;exitPerimeter=0;" parent="1" source="gv2Mm_Y-joqYlYkA0Ygy-138" target="gv2Mm_Y-joqYlYkA0Ygy-166" edge="1">
          <mxGeometry width="50" height="50" relative="1" as="geometry">
            <mxPoint x="1120" y="506.15999999999997" as="sourcePoint" />
            <mxPoint x="1044" y="571.16" as="targetPoint" />
          </mxGeometry>
        </mxCell>
        <mxCell id="gv2Mm_Y-joqYlYkA0Ygy-183" value="nameShortES" style="edgeLabel;html=1;align=center;verticalAlign=middle;resizable=0;points=[];" parent="gv2Mm_Y-joqYlYkA0Ygy-182" vertex="1" connectable="0">
          <mxGeometry x="-0.4206" y="1" relative="1" as="geometry">
            <mxPoint x="20" y="2" as="offset" />
          </mxGeometry>
        </mxCell>
        <mxCell id="gv2Mm_Y-joqYlYkA0Ygy-184" value="String" style="rounded=0;whiteSpace=wrap;html=1;strokeColor=#000000;fillColor=#fdc502;" parent="1" vertex="1">
          <mxGeometry x="1080" y="191.16" width="70" height="20" as="geometry" />
        </mxCell>
        <mxCell id="gv2Mm_Y-joqYlYkA0Ygy-185" value="String" style="rounded=0;whiteSpace=wrap;html=1;strokeColor=#000000;fillColor=#fdc502;" parent="1" vertex="1">
          <mxGeometry x="1183" y="191.16" width="70" height="20" as="geometry" />
        </mxCell>
        <mxCell id="gv2Mm_Y-joqYlYkA0Ygy-186" value="" style="endArrow=classic;html=1;rounded=0;exitX=0.693;exitY=0.015;exitDx=0;exitDy=0;entryX=0.5;entryY=1;entryDx=0;entryDy=0;exitPerimeter=0;" parent="1" source="gv2Mm_Y-joqYlYkA0Ygy-134" target="gv2Mm_Y-joqYlYkA0Ygy-185" edge="1">
          <mxGeometry width="50" height="50" relative="1" as="geometry">
            <mxPoint x="1240" y="261.15999999999997" as="sourcePoint" />
            <mxPoint x="1326" y="290.15999999999997" as="targetPoint" />
          </mxGeometry>
        </mxCell>
        <mxCell id="gv2Mm_Y-joqYlYkA0Ygy-187" value="nameListES" style="edgeLabel;html=1;align=center;verticalAlign=middle;resizable=0;points=[];" parent="gv2Mm_Y-joqYlYkA0Ygy-186" vertex="1" connectable="0">
          <mxGeometry x="-0.4206" y="1" relative="1" as="geometry">
            <mxPoint x="16" y="-9" as="offset" />
          </mxGeometry>
        </mxCell>
        <mxCell id="gv2Mm_Y-joqYlYkA0Ygy-188" value="" style="endArrow=classic;html=1;rounded=0;exitX=0.323;exitY=0.025;exitDx=0;exitDy=0;entryX=0.5;entryY=1;entryDx=0;entryDy=0;exitPerimeter=0;" parent="1" source="gv2Mm_Y-joqYlYkA0Ygy-134" target="gv2Mm_Y-joqYlYkA0Ygy-184" edge="1">
          <mxGeometry width="50" height="50" relative="1" as="geometry">
            <mxPoint x="1208" y="273.15999999999997" as="sourcePoint" />
            <mxPoint x="1265" y="201.16" as="targetPoint" />
          </mxGeometry>
        </mxCell>
        <mxCell id="gv2Mm_Y-joqYlYkA0Ygy-189" value="nameListEN" style="edgeLabel;html=1;align=center;verticalAlign=middle;resizable=0;points=[];" parent="gv2Mm_Y-joqYlYkA0Ygy-188" vertex="1" connectable="0">
          <mxGeometry x="-0.4206" y="1" relative="1" as="geometry">
            <mxPoint x="-13" y="-10" as="offset" />
          </mxGeometry>
        </mxCell>
        <mxCell id="gv2Mm_Y-joqYlYkA0Ygy-190" value="" style="endArrow=classic;html=1;rounded=0;exitX=0;exitY=0;exitDx=0;exitDy=0;entryX=0.64;entryY=0.015;entryDx=0;entryDy=0;entryPerimeter=0;edgeStyle=orthogonalEdgeStyle;curved=1;" parent="1" source="gv2Mm_Y-joqYlYkA0Ygy-138" target="gv2Mm_Y-joqYlYkA0Ygy-138" edge="1">
          <mxGeometry width="50" height="50" relative="1" as="geometry">
            <mxPoint x="979.9930645386903" y="441.938766969569" as="sourcePoint" />
            <mxPoint x="1021.4200000000001" y="431.15999999999997" as="targetPoint" />
            <Array as="points">
              <mxPoint x="970" y="443.15999999999997" />
              <mxPoint x="970" y="401.15999999999997" />
              <mxPoint x="1021" y="401.15999999999997" />
            </Array>
          </mxGeometry>
        </mxCell>
        <mxCell id="gv2Mm_Y-joqYlYkA0Ygy-191" value="&lt;font style=&quot;font-size: 9px;&quot;&gt;hasBorderWith&lt;/font&gt;" style="edgeLabel;html=1;align=center;verticalAlign=middle;resizable=0;points=[];" parent="gv2Mm_Y-joqYlYkA0Ygy-190" vertex="1" connectable="0">
          <mxGeometry x="0.1306" y="-2" relative="1" as="geometry">
            <mxPoint x="-18" y="8" as="offset" />
          </mxGeometry>
        </mxCell>
        <mxCell id="gv2Mm_Y-joqYlYkA0Ygy-192" style="rounded=0;orthogonalLoop=1;jettySize=auto;html=1;exitX=0.952;exitY=0.271;exitDx=0;exitDy=0;entryX=0.046;entryY=0.256;entryDx=0;entryDy=0;exitPerimeter=0;entryPerimeter=0;" parent="1" source="gv2Mm_Y-joqYlYkA0Ygy-109" target="gv2Mm_Y-joqYlYkA0Ygy-124" edge="1">
          <mxGeometry relative="1" as="geometry">
            <mxPoint x="553" y="663" as="sourcePoint" />
            <mxPoint x="635" y="690" as="targetPoint" />
          </mxGeometry>
        </mxCell>
        <mxCell id="gv2Mm_Y-joqYlYkA0Ygy-193" value="incluidoEn" style="edgeLabel;html=1;align=center;verticalAlign=middle;resizable=0;points=[];" parent="gv2Mm_Y-joqYlYkA0Ygy-192" vertex="1" connectable="0">
          <mxGeometry x="0.4116" relative="1" as="geometry">
            <mxPoint x="-56" y="1" as="offset" />
          </mxGeometry>
        </mxCell>
        <mxCell id="gv2Mm_Y-joqYlYkA0Ygy-194" style="rounded=0;orthogonalLoop=1;jettySize=auto;html=1;exitX=0.025;exitY=0.74;exitDx=0;exitDy=0;entryX=0.921;entryY=0.76;entryDx=0;entryDy=0;exitPerimeter=0;entryPerimeter=0;" parent="1" source="gv2Mm_Y-joqYlYkA0Ygy-124" target="gv2Mm_Y-joqYlYkA0Ygy-109" edge="1">
          <mxGeometry relative="1" as="geometry">
            <mxPoint x="553" y="693" as="sourcePoint" />
            <mxPoint x="635" y="720" as="targetPoint" />
          </mxGeometry>
        </mxCell>
        <mxCell id="gv2Mm_Y-joqYlYkA0Ygy-195" value="incluyeParteDe" style="edgeLabel;html=1;align=center;verticalAlign=middle;resizable=0;points=[];" parent="gv2Mm_Y-joqYlYkA0Ygy-194" vertex="1" connectable="0">
          <mxGeometry x="0.4116" relative="1" as="geometry">
            <mxPoint x="33" as="offset" />
          </mxGeometry>
        </mxCell>
        <mxCell id="gv2Mm_Y-joqYlYkA0Ygy-196" value="&lt;font face=&quot;Verdana&quot;&gt;Topics&lt;/font&gt;" style="ellipse;whiteSpace=wrap;html=1;aspect=fixed;fillColor=#0050ef;strokeColor=#000000;fontColor=#ffffff;" parent="1" vertex="1">
          <mxGeometry x="925" y="-100" width="80" height="80" as="geometry" />
        </mxCell>
        <mxCell id="gv2Mm_Y-joqYlYkA0Ygy-197" value="&lt;font face=&quot;Verdana&quot;&gt;Secciones Especiales&lt;br&gt;&lt;/font&gt;" style="ellipse;whiteSpace=wrap;html=1;aspect=fixed;fillColor=#0050ef;strokeColor=#000000;fontColor=#ffffff;" parent="1" vertex="1">
          <mxGeometry x="1035" y="80" width="80" height="80" as="geometry" />
        </mxCell>
        <mxCell id="gv2Mm_Y-joqYlYkA0Ygy-198" value="&lt;font style=&quot;font-size: 11px;&quot; face=&quot;Verdana&quot;&gt;RegulaciÃ³n y SuperviciÃ³n&lt;br&gt;&lt;/font&gt;" style="ellipse;whiteSpace=wrap;html=1;aspect=fixed;fillColor=#0050ef;strokeColor=#000000;fontColor=#ffffff;" parent="1" vertex="1">
          <mxGeometry x="1105" y="-210" width="80" height="80" as="geometry" />
        </mxCell>
        <mxCell id="gv2Mm_Y-joqYlYkA0Ygy-199" value="&lt;font face=&quot;Verdana&quot;&gt;Principios y SÃ­mbolos&lt;br&gt;&lt;/font&gt;" style="ellipse;whiteSpace=wrap;html=1;aspect=fixed;fillColor=#0050ef;strokeColor=#000000;fontColor=#ffffff;" parent="1" vertex="1">
          <mxGeometry x="925" y="100" width="80" height="80" as="geometry" />
        </mxCell>
        <mxCell id="gv2Mm_Y-joqYlYkA0Ygy-200" value="&lt;font style=&quot;font-size: 9px;&quot; face=&quot;Verdana&quot;&gt;Normas Internacionales&lt;br&gt;&lt;/font&gt;" style="ellipse;whiteSpace=wrap;html=1;aspect=fixed;fillColor=#0050ef;strokeColor=#000000;fontColor=#ffffff;" parent="1" vertex="1">
          <mxGeometry x="1035" y="-280" width="80" height="80" as="geometry" />
        </mxCell>
        <mxCell id="gv2Mm_Y-joqYlYkA0Ygy-201" value="&lt;font face=&quot;Verdana&quot;&gt;Legislativo&lt;/font&gt;" style="ellipse;whiteSpace=wrap;html=1;aspect=fixed;fillColor=#0050ef;strokeColor=#000000;fontColor=#ffffff;" parent="1" vertex="1">
          <mxGeometry x="815" y="-280" width="80" height="80" as="geometry" />
        </mxCell>
        <mxCell id="gv2Mm_Y-joqYlYkA0Ygy-202" value="&lt;font face=&quot;Verdana&quot;&gt;Judicial&lt;/font&gt;" style="ellipse;whiteSpace=wrap;html=1;aspect=fixed;fillColor=#0050ef;strokeColor=#000000;fontColor=#ffffff;" parent="1" vertex="1">
          <mxGeometry x="925" y="-300" width="80" height="80" as="geometry" />
        </mxCell>
        <mxCell id="gv2Mm_Y-joqYlYkA0Ygy-203" value="&lt;font face=&quot;Verdana&quot;&gt;Federalismo&lt;/font&gt;" style="ellipse;whiteSpace=wrap;html=1;aspect=fixed;fillColor=#0050ef;strokeColor=#000000;fontColor=#ffffff;" parent="1" vertex="1">
          <mxGeometry x="745" y="-210" width="80" height="80" as="geometry" />
        </mxCell>
        <mxCell id="gv2Mm_Y-joqYlYkA0Ygy-204" value="&lt;font face=&quot;Verdana&quot;&gt;Enmienda&lt;/font&gt;" style="ellipse;whiteSpace=wrap;html=1;aspect=fixed;fillColor=#0050ef;strokeColor=#000000;fontColor=#ffffff;" parent="1" vertex="1">
          <mxGeometry x="725" y="-100" width="80" height="80" as="geometry" />
        </mxCell>
        <mxCell id="gv2Mm_Y-joqYlYkA0Ygy-205" value="&lt;font face=&quot;Verdana&quot;&gt;Elecciones&lt;/font&gt;" style="ellipse;whiteSpace=wrap;html=1;aspect=fixed;fillColor=#0050ef;strokeColor=#000000;fontColor=#ffffff;" parent="1" vertex="1">
          <mxGeometry x="745" y="10" width="80" height="80" as="geometry" />
        </mxCell>
        <mxCell id="gv2Mm_Y-joqYlYkA0Ygy-206" style="rounded=0;orthogonalLoop=1;jettySize=auto;html=1;entryX=0;entryY=1;entryDx=0;entryDy=0;exitX=0.6;exitY=0;exitDx=0;exitDy=0;exitPerimeter=0;" parent="1" source="gv2Mm_Y-joqYlYkA0Ygy-208" target="gv2Mm_Y-joqYlYkA0Ygy-196" edge="1">
          <mxGeometry relative="1" as="geometry" />
        </mxCell>
        <mxCell id="gv2Mm_Y-joqYlYkA0Ygy-207" value="subClassOf" style="edgeLabel;html=1;align=center;verticalAlign=middle;resizable=0;points=[];" parent="gv2Mm_Y-joqYlYkA0Ygy-206" vertex="1" connectable="0">
          <mxGeometry x="-0.0272" relative="1" as="geometry">
            <mxPoint y="-13" as="offset" />
          </mxGeometry>
        </mxCell>
        <mxCell id="gv2Mm_Y-joqYlYkA0Ygy-208" value="&lt;font face=&quot;Verdana&quot;&gt;Ejecutivo&lt;/font&gt;" style="ellipse;whiteSpace=wrap;html=1;aspect=fixed;fillColor=#0050ef;strokeColor=#000000;fontColor=#ffffff;" parent="1" vertex="1">
          <mxGeometry x="815" y="80" width="80" height="80" as="geometry" />
        </mxCell>
        <mxCell id="gv2Mm_Y-joqYlYkA0Ygy-209" value="&lt;font face=&quot;Verdana&quot;&gt;Derechos y Deberes&lt;br&gt;&lt;/font&gt;" style="ellipse;whiteSpace=wrap;html=1;aspect=fixed;fillColor=#0050ef;strokeColor=#000000;fontColor=#ffffff;" parent="1" vertex="1">
          <mxGeometry x="1105" y="10" width="80" height="80" as="geometry" />
        </mxCell>
        <mxCell id="gv2Mm_Y-joqYlYkA0Ygy-210" value="&lt;font face=&quot;Verdana&quot;&gt;Cultura e Identidad&lt;br&gt;&lt;/font&gt;" style="ellipse;whiteSpace=wrap;html=1;aspect=fixed;fillColor=#0050ef;strokeColor=#000000;fontColor=#ffffff;" parent="1" vertex="1">
          <mxGeometry x="1125" y="-100" width="80" height="80" as="geometry" />
        </mxCell>
        <mxCell id="gv2Mm_Y-joqYlYkA0Ygy-211" style="rounded=0;orthogonalLoop=1;jettySize=auto;html=1;exitX=0.5;exitY=0;exitDx=0;exitDy=0;" parent="1" source="gv2Mm_Y-joqYlYkA0Ygy-199" target="gv2Mm_Y-joqYlYkA0Ygy-196" edge="1">
          <mxGeometry relative="1" as="geometry">
            <mxPoint x="979" y="113" as="sourcePoint" />
            <mxPoint x="1043" y="-13" as="targetPoint" />
          </mxGeometry>
        </mxCell>
        <mxCell id="gv2Mm_Y-joqYlYkA0Ygy-212" value="subClassOf" style="edgeLabel;html=1;align=center;verticalAlign=middle;resizable=0;points=[];" parent="gv2Mm_Y-joqYlYkA0Ygy-211" vertex="1" connectable="0">
          <mxGeometry x="-0.0272" relative="1" as="geometry">
            <mxPoint y="8" as="offset" />
          </mxGeometry>
        </mxCell>
        <mxCell id="gv2Mm_Y-joqYlYkA0Ygy-213" style="rounded=0;orthogonalLoop=1;jettySize=auto;html=1;exitX=0.313;exitY=0.05;exitDx=0;exitDy=0;exitPerimeter=0;" parent="1" source="gv2Mm_Y-joqYlYkA0Ygy-197" edge="1">
          <mxGeometry relative="1" as="geometry">
            <mxPoint x="893" y="114" as="sourcePoint" />
            <mxPoint x="985" y="-30" as="targetPoint" />
          </mxGeometry>
        </mxCell>
        <mxCell id="gv2Mm_Y-joqYlYkA0Ygy-214" value="subClassOf" style="edgeLabel;html=1;align=center;verticalAlign=middle;resizable=0;points=[];" parent="gv2Mm_Y-joqYlYkA0Ygy-213" vertex="1" connectable="0">
          <mxGeometry x="-0.0272" relative="1" as="geometry">
            <mxPoint y="-14" as="offset" />
          </mxGeometry>
        </mxCell>
        <mxCell id="gv2Mm_Y-joqYlYkA0Ygy-215" style="rounded=0;orthogonalLoop=1;jettySize=auto;html=1;exitX=0;exitY=0;exitDx=0;exitDy=0;entryX=0.988;entryY=0.675;entryDx=0;entryDy=0;entryPerimeter=0;" parent="1" source="gv2Mm_Y-joqYlYkA0Ygy-209" target="gv2Mm_Y-joqYlYkA0Ygy-196" edge="1">
          <mxGeometry relative="1" as="geometry">
            <mxPoint x="903" y="124" as="sourcePoint" />
            <mxPoint x="1005" y="-20" as="targetPoint" />
          </mxGeometry>
        </mxCell>
        <mxCell id="gv2Mm_Y-joqYlYkA0Ygy-216" value="subClassOf" style="edgeLabel;html=1;align=center;verticalAlign=middle;resizable=0;points=[];" parent="gv2Mm_Y-joqYlYkA0Ygy-215" vertex="1" connectable="0">
          <mxGeometry x="-0.0272" relative="1" as="geometry">
            <mxPoint as="offset" />
          </mxGeometry>
        </mxCell>
        <mxCell id="gv2Mm_Y-joqYlYkA0Ygy-217" style="rounded=0;orthogonalLoop=1;jettySize=auto;html=1;entryX=1;entryY=0.5;entryDx=0;entryDy=0;exitX=0;exitY=0.5;exitDx=0;exitDy=0;" parent="1" source="gv2Mm_Y-joqYlYkA0Ygy-210" target="gv2Mm_Y-joqYlYkA0Ygy-196" edge="1">
          <mxGeometry relative="1" as="geometry">
            <mxPoint x="913" y="134" as="sourcePoint" />
            <mxPoint x="977" y="8" as="targetPoint" />
          </mxGeometry>
        </mxCell>
        <mxCell id="gv2Mm_Y-joqYlYkA0Ygy-218" value="subClassOf" style="edgeLabel;html=1;align=center;verticalAlign=middle;resizable=0;points=[];" parent="gv2Mm_Y-joqYlYkA0Ygy-217" vertex="1" connectable="0">
          <mxGeometry x="-0.0272" relative="1" as="geometry">
            <mxPoint as="offset" />
          </mxGeometry>
        </mxCell>
        <mxCell id="gv2Mm_Y-joqYlYkA0Ygy-219" style="rounded=0;orthogonalLoop=1;jettySize=auto;html=1;entryX=0.5;entryY=0;entryDx=0;entryDy=0;exitX=0.5;exitY=1;exitDx=0;exitDy=0;" parent="1" source="gv2Mm_Y-joqYlYkA0Ygy-202" target="gv2Mm_Y-joqYlYkA0Ygy-196" edge="1">
          <mxGeometry relative="1" as="geometry">
            <mxPoint x="923" y="144" as="sourcePoint" />
            <mxPoint x="987" y="18" as="targetPoint" />
          </mxGeometry>
        </mxCell>
        <mxCell id="gv2Mm_Y-joqYlYkA0Ygy-220" value="subClassOf" style="edgeLabel;html=1;align=center;verticalAlign=middle;resizable=0;points=[];" parent="gv2Mm_Y-joqYlYkA0Ygy-219" vertex="1" connectable="0">
          <mxGeometry x="-0.0272" relative="1" as="geometry">
            <mxPoint y="-18" as="offset" />
          </mxGeometry>
        </mxCell>
        <mxCell id="gv2Mm_Y-joqYlYkA0Ygy-221" style="rounded=0;orthogonalLoop=1;jettySize=auto;html=1;entryX=0;entryY=0.5;entryDx=0;entryDy=0;exitX=1;exitY=0.5;exitDx=0;exitDy=0;" parent="1" source="gv2Mm_Y-joqYlYkA0Ygy-204" target="gv2Mm_Y-joqYlYkA0Ygy-196" edge="1">
          <mxGeometry relative="1" as="geometry">
            <mxPoint x="933" y="154" as="sourcePoint" />
            <mxPoint x="997" y="28" as="targetPoint" />
          </mxGeometry>
        </mxCell>
        <mxCell id="gv2Mm_Y-joqYlYkA0Ygy-222" value="subClassOf" style="edgeLabel;html=1;align=center;verticalAlign=middle;resizable=0;points=[];" parent="gv2Mm_Y-joqYlYkA0Ygy-221" vertex="1" connectable="0">
          <mxGeometry x="-0.0272" relative="1" as="geometry">
            <mxPoint as="offset" />
          </mxGeometry>
        </mxCell>
        <mxCell id="gv2Mm_Y-joqYlYkA0Ygy-223" style="rounded=0;orthogonalLoop=1;jettySize=auto;html=1;entryX=0.263;entryY=0.063;entryDx=0;entryDy=0;entryPerimeter=0;" parent="1" source="gv2Mm_Y-joqYlYkA0Ygy-201" target="gv2Mm_Y-joqYlYkA0Ygy-196" edge="1">
          <mxGeometry relative="1" as="geometry">
            <mxPoint x="943" y="164" as="sourcePoint" />
            <mxPoint x="1007" y="38" as="targetPoint" />
          </mxGeometry>
        </mxCell>
        <mxCell id="gv2Mm_Y-joqYlYkA0Ygy-224" value="subClassOf" style="edgeLabel;html=1;align=center;verticalAlign=middle;resizable=0;points=[];" parent="gv2Mm_Y-joqYlYkA0Ygy-223" vertex="1" connectable="0">
          <mxGeometry x="-0.0272" relative="1" as="geometry">
            <mxPoint x="-5" y="-3" as="offset" />
          </mxGeometry>
        </mxCell>
        <mxCell id="gv2Mm_Y-joqYlYkA0Ygy-225" style="rounded=0;orthogonalLoop=1;jettySize=auto;html=1;entryX=0.7;entryY=0.075;entryDx=0;entryDy=0;exitX=0.263;exitY=0.963;exitDx=0;exitDy=0;entryPerimeter=0;exitPerimeter=0;" parent="1" source="gv2Mm_Y-joqYlYkA0Ygy-200" target="gv2Mm_Y-joqYlYkA0Ygy-196" edge="1">
          <mxGeometry relative="1" as="geometry">
            <mxPoint x="1255" y="16" as="sourcePoint" />
            <mxPoint x="1319" y="-110" as="targetPoint" />
          </mxGeometry>
        </mxCell>
        <mxCell id="gv2Mm_Y-joqYlYkA0Ygy-226" value="subClassOf" style="edgeLabel;html=1;align=center;verticalAlign=middle;resizable=0;points=[];" parent="gv2Mm_Y-joqYlYkA0Ygy-225" vertex="1" connectable="0">
          <mxGeometry x="-0.0272" relative="1" as="geometry">
            <mxPoint as="offset" />
          </mxGeometry>
        </mxCell>
        <mxCell id="gv2Mm_Y-joqYlYkA0Ygy-227" style="rounded=0;orthogonalLoop=1;jettySize=auto;html=1;exitX=1;exitY=1;exitDx=0;exitDy=0;" parent="1" source="gv2Mm_Y-joqYlYkA0Ygy-203" target="gv2Mm_Y-joqYlYkA0Ygy-196" edge="1">
          <mxGeometry relative="1" as="geometry">
            <mxPoint x="585" y="56" as="sourcePoint" />
            <mxPoint x="649" y="-70" as="targetPoint" />
          </mxGeometry>
        </mxCell>
        <mxCell id="gv2Mm_Y-joqYlYkA0Ygy-228" value="subClassOf" style="edgeLabel;html=1;align=center;verticalAlign=middle;resizable=0;points=[];" parent="gv2Mm_Y-joqYlYkA0Ygy-227" vertex="1" connectable="0">
          <mxGeometry x="-0.0272" relative="1" as="geometry">
            <mxPoint as="offset" />
          </mxGeometry>
        </mxCell>
        <mxCell id="gv2Mm_Y-joqYlYkA0Ygy-229" style="rounded=0;orthogonalLoop=1;jettySize=auto;html=1;exitX=1;exitY=0;exitDx=0;exitDy=0;" parent="1" source="gv2Mm_Y-joqYlYkA0Ygy-205" target="gv2Mm_Y-joqYlYkA0Ygy-196" edge="1">
          <mxGeometry relative="1" as="geometry">
            <mxPoint x="565" y="126" as="sourcePoint" />
            <mxPoint x="629" as="targetPoint" />
          </mxGeometry>
        </mxCell>
        <mxCell id="gv2Mm_Y-joqYlYkA0Ygy-230" value="subClassOf" style="edgeLabel;html=1;align=center;verticalAlign=middle;resizable=0;points=[];" parent="gv2Mm_Y-joqYlYkA0Ygy-229" vertex="1" connectable="0">
          <mxGeometry x="-0.0272" relative="1" as="geometry">
            <mxPoint as="offset" />
          </mxGeometry>
        </mxCell>
        <mxCell id="gv2Mm_Y-joqYlYkA0Ygy-231" style="rounded=0;orthogonalLoop=1;jettySize=auto;html=1;entryX=0.963;entryY=0.35;entryDx=0;entryDy=0;exitX=0;exitY=1;exitDx=0;exitDy=0;entryPerimeter=0;" parent="1" source="gv2Mm_Y-joqYlYkA0Ygy-198" target="gv2Mm_Y-joqYlYkA0Ygy-196" edge="1">
          <mxGeometry relative="1" as="geometry">
            <mxPoint x="983" y="204" as="sourcePoint" />
            <mxPoint x="1047" y="78" as="targetPoint" />
          </mxGeometry>
        </mxCell>
        <mxCell id="gv2Mm_Y-joqYlYkA0Ygy-232" value="subClassOf" style="edgeLabel;html=1;align=center;verticalAlign=middle;resizable=0;points=[];" parent="gv2Mm_Y-joqYlYkA0Ygy-231" vertex="1" connectable="0">
          <mxGeometry x="-0.0272" relative="1" as="geometry">
            <mxPoint as="offset" />
          </mxGeometry>
        </mxCell>
        <mxCell id="CY1ReImy7iCXVdi6h_vM-1" value="String" style="rounded=0;whiteSpace=wrap;html=1;strokeColor=#000000;fillColor=#fdc502;" vertex="1" parent="1">
          <mxGeometry x="590" y="580" width="70" height="20" as="geometry" />
        </mxCell>
        <mxCell id="CY1ReImy7iCXVdi6h_vM-2" style="rounded=0;orthogonalLoop=1;jettySize=auto;html=1;exitX=0.883;exitY=0.808;exitDx=0;exitDy=0;entryX=-0.005;entryY=0.4;entryDx=0;entryDy=0;exitPerimeter=0;entryPerimeter=0;" edge="1" parent="1" source="gv2Mm_Y-joqYlYkA0Ygy-106" target="CY1ReImy7iCXVdi6h_vM-1">
          <mxGeometry relative="1" as="geometry">
            <mxPoint x="528" y="560" as="sourcePoint" />
            <mxPoint x="620" y="560" as="targetPoint" />
          </mxGeometry>
        </mxCell>
        <mxCell id="CY1ReImy7iCXVdi6h_vM-3" value="fecha" style="edgeLabel;html=1;align=center;verticalAlign=middle;resizable=0;points=[];" vertex="1" connectable="0" parent="CY1ReImy7iCXVdi6h_vM-2">
          <mxGeometry x="0.4116" relative="1" as="geometry">
            <mxPoint x="-20" y="-3" as="offset" />
          </mxGeometry>
        </mxCell>
      </root>
    </mxGraphModel>
  </diagram>
</mxfile>
